name GIL01_xslow2.mot
datacolumns 153
datarows 4
range 0.64999998 0.67499995
endheader

                time	           pelvis_tx	           pelvis_ty	           pelvis_tz	         pelvis_tilt	         pelvis_list	     pelvis_rotation	       hip_flexion_r	     hip_adduction_r	      hip_rotation_r	        knee_angle_r	       ankle_angle_r	    subtalar_angle_r	         mtp_angle_r	       hip_flexion_l	     hip_adduction_l	      hip_rotation_l	        knee_angle_l	       ankle_angle_l	    subtalar_angle_l	         mtp_angle_l	    lumbar_extension	      lumbar_bending	     lumbar_rotation	     ground_force_vx	     ground_force_vy	     ground_force_vz	     ground_force_px	     ground_force_py	     ground_force_pz	     ground_force_vx	     ground_force_vy	     ground_force_vz	     ground_force_px	     ground_force_py	     ground_force_pz	     ground_torque_x	     ground_torque_y	     ground_torque_z	     ground_torque_x	     ground_torque_y	     ground_torque_z	    ground_marker_px	    ground_marker_py	    ground_marker_pz	    ground_marker_px	    ground_marker_py	    ground_marker_pz	    ground_marker_px	    ground_marker_py	    ground_marker_pz	    ground_marker_px	    ground_marker_py	    ground_marker_pz	    ground_marker_px	    ground_marker_py	    ground_marker_pz	    ground_marker_px	    ground_marker_py	    ground_marker_pz	    ground_marker_px	    ground_marker_py	    ground_marker_pz	    ground_marker_px	    ground_marker_py	    ground_marker_pz	    ground_marker_px	    ground_marker_py	    ground_marker_pz	    ground_marker_px	    ground_marker_py	    ground_marker_pz	    ground_marker_px	    ground_marker_py	    ground_marker_pz	    ground_marker_px	    ground_marker_py	    ground_marker_pz	    ground_marker_px	    ground_marker_py	    ground_marker_pz	    ground_marker_px	    ground_marker_py	    ground_marker_pz	    ground_marker_px	    ground_marker_py	    ground_marker_pz	    ground_marker_px	    ground_marker_py	    ground_marker_pz	    ground_marker_px	    ground_marker_py	    ground_marker_pz	    ground_marker_px	    ground_marker_py	    ground_marker_pz	    ground_marker_px	    ground_marker_py	    ground_marker_pz	    ground_marker_px	    ground_marker_py	    ground_marker_pz	    ground_marker_px	    ground_marker_py	    ground_marker_pz	    ground_marker_px	    ground_marker_py	    ground_marker_pz	    ground_marker_px	    ground_marker_py	    ground_marker_pz	    ground_marker_px	    ground_marker_py	    ground_marker_pz	    ground_marker_px	    ground_marker_py	    ground_marker_pz	    ground_marker_px	    ground_marker_py	    ground_marker_pz	    ground_marker_px	    ground_marker_py	    ground_marker_pz	    ground_marker_px	    ground_marker_py	    ground_marker_pz	    ground_marker_px	    ground_marker_py	    ground_marker_pz	    ground_marker_px	    ground_marker_py	    ground_marker_pz	    ground_marker_px	    ground_marker_py	    ground_marker_pz	    ground_marker_px	    ground_marker_py	    ground_marker_pz	    ground_marker_px	    ground_marker_py	    ground_marker_pz	    ground_marker_px	    ground_marker_py	    ground_marker_pz	    ground_marker_px	    ground_marker_py	    ground_marker_pz	    ground_marker_px	    ground_marker_py	    ground_marker_pz	    ground_marker_px	    ground_marker_py	    ground_marker_pz	
          0.64999998	          0.93703151	          0.80412781	         -0.28187490	         -3.32237053	          2.15837002	          2.97201800	         28.81116486	         -6.48804569	         -2.50477266	        -26.73714638	         -1.00373054	          0.00000000	          0.00000000	         -6.58539486	          6.12341928	         -3.39652824	          5.33596802	          3.25061345	          0.00000000	          0.00000000	         -8.37716198	          0.72248262	         -5.23751545	          0.00000000	          0.00000000	          0.00000000	          1.19050378	          0.00000000	         -0.15817349	         17.04945905	        396.13091468	         20.00086376	          0.82600793	          0.00000000	         -0.31588977	          0.00000000	          0.00000000	          0.00000000	          0.00000000	         -1.25643994	          0.00000000	          0.87925816	          0.74039614	         -0.28479308	          0.86774892	          0.73361230	         -0.21733274	          0.86252767	          0.74012488	         -0.34738061	          1.01769686	          0.42083541	         -0.19969070	          0.80963111	          0.42790523	         -0.32697323	          1.01109707	          0.08273511	         -0.18976112	          0.78268749	          0.06962372	         -0.30739251	          0.93703151	          0.80412781	         -0.28187490	          0.94106913	          0.79909170	         -0.18130955	          0.93299395	          0.80916387	         -0.38244027	          0.78170890	          0.84473658	         -0.23903984	          0.77768093	          0.84851193	         -0.29338872	          1.01504672	          0.42266187	         -0.14478496	          0.80328774	          0.42544559	         -0.38104689	          1.03519833	          0.41833439	         -0.23785475	          0.80795962	          0.40908152	         -0.28393868	          0.99739814	          0.08402702	         -0.15487677	          0.77426362	          0.06828956	         -0.34339613	          1.01808405	          0.08679833	         -0.21308075	          0.78258055	          0.06939710	         -0.27703911	          0.81482154	          1.21437395	         -0.28082365	          0.91941690	          1.15251660	         -0.23579341	          0.92339814	          1.15591526	         -0.31216609	          0.90676385	          1.15340304	         -0.27617756	          0.93295312	          1.07049835	         -0.27609107	          1.05741298	          0.58192861	         -0.08969461	          0.97801578	          0.52695668	         -0.35823235	          0.96947032	          0.59201187	         -0.13028321	          0.91531706	          0.59508550	         -0.38827085	          1.00797462	          0.51619786	         -0.13761581	          0.88907087	          0.51149231	         -0.38034064	          0.97314358	          0.19848739	         -0.08348212	          0.79691529	          0.18698083	         -0.42591473	          0.98858732	          0.16154450	         -0.15634978	          0.77828467	          0.15271057	         -0.35168532	          1.09781265	          0.05429576	         -0.15447496	          0.88258392	          0.03649495	         -0.32262167	
          0.65833330	          0.94142658	          0.80386549	         -0.28180769	         -3.29503536	          2.15615439	          3.03691101	         28.89000702	         -6.39518309	         -2.61289501	        -24.73833847	         -1.36639202	          0.00000000	          0.00000000	         -6.82092524	          6.17207003	         -3.61589670	          5.06467342	          3.71434283	          0.00000000	          0.00000000	         -8.34129238	          0.88387346	         -5.64273214	          0.00000000	          0.00000000	          0.00000000	          1.19049426	          0.00000000	         -0.15805692	         18.04703630	        395.62619182	         19.99995750	          0.82643701	          0.00000000	         -0.31606589	          0.00000000	          0.00000000	          0.00000000	          0.00000000	         -1.37407080	          0.00000000	          0.88347387	          0.74020743	         -0.28466439	          0.87225175	          0.73329717	         -0.21720769	          0.86688381	          0.73984092	         -0.34724805	          1.02291727	          0.42055553	         -0.20037068	          0.81289136	          0.42770711	         -0.32652384	          1.02870762	          0.08141052	         -0.18905830	          0.78291184	          0.06955291	         -0.30727383	          0.94142658	          0.80386549	         -0.28180769	          0.94557714	          0.79880577	         -0.18125911	          0.93727601	          0.80892521	         -0.38235629	          0.78601813	          0.84439355	         -0.23835163	          0.78175318	          0.84823424	         -0.29271367	          1.02026570	          0.42223430	         -0.14546029	          0.80625653	          0.42526680	         -0.38056338	          1.04012752	          0.41854319	         -0.23850715	          0.81183833	          0.40948173	         -0.28272781	          1.01486635	          0.08233631	         -0.15421849	          0.77442640	          0.06832863	         -0.34326687	          1.03569746	          0.08575344	         -0.21242261	          0.78286475	          0.06930114	         -0.27690941	          0.81912094	          1.21410799	         -0.28018224	          0.92381603	          1.15209925	         -0.23569888	          0.92827809	          1.15562320	         -0.31194389	          0.91141802	          1.15304637	         -0.27611405	          0.93763906	          1.07015169	         -0.27599913	          1.06198311	          0.58187968	         -0.09011076	          0.98125547	          0.52648526	         -0.35864681	          0.97394913	          0.59189069	         -0.13057129	          0.91846460	          0.59481096	         -0.38900644	          1.01272905	          0.51609796	         -0.13808021	          0.89237094	          0.51123357	         -0.38029665	          0.98620343	          0.19638912	         -0.08333857	          0.79797149	          0.18687740	         -0.42569610	          1.00298762	          0.16017742	         -0.15564081	          0.77911913	          0.15267085	         -0.35146153	          1.11663973	          0.05560026	         -0.15367194	          0.88261920	          0.03644428	         -0.32278359	
          0.66666663	          0.94593292	          0.80361807	         -0.28172755	         -3.25400162	          2.14641213	          3.10868788	         28.89888382	         -6.29539108	         -2.68774652	        -22.69405746	         -1.74894774	          0.00000000	          0.00000000	         -7.07405663	          6.20995283	         -3.82655787	          4.78884554	          4.18701077	          0.00000000	          0.00000000	         -8.20814133	          1.14237356	         -6.53192186	          0.00000000	          0.00000000	          0.00000000	          1.19047974	          0.00000000	         -0.15795427	         18.83119641	        394.82742495	         19.98253504	          0.82722919	          0.00000000	         -0.31622052	          0.00000000	          0.00000000	          0.00000000	          0.00000000	         -1.48710620	          0.00000000	          0.88774699	          0.73995578	         -0.28468072	          0.87689292	          0.73298627	         -0.21705267	          0.87135714	          0.73954743	         -0.34708512	          1.02795744	          0.42016861	         -0.20105253	          0.81624568	          0.42748237	         -0.32605579	          1.04613531	          0.08050709	         -0.18814856	          0.78317636	          0.06949832	         -0.30712625	          0.94593292	          0.80361807	         -0.28172755	          0.95021254	          0.79854578	         -0.18120305	          0.94165331	          0.80869031	         -0.38225204	          0.79052263	          0.84402364	         -0.23759712	          0.78589749	          0.84792119	         -0.29200077	          1.02534950	          0.42171812	         -0.14613625	          0.80932033	          0.42506620	         -0.38005996	          1.04372466	          0.41820896	         -0.23911563	          0.81546956	          0.40958923	         -0.28215140	          1.03214991	          0.08108032	         -0.15335874	          0.77462912	          0.06838522	         -0.34310824	          1.05303788	          0.08507275	         -0.21154672	          0.78317004	          0.06920938	         -0.27676311	          0.82345206	          1.21382225	         -0.27952221	          0.92825359	          1.15168345	         -0.23547216	          0.93385935	          1.15535390	         -0.31181929	          0.91646457	          1.15268540	         -0.27615753	          0.94280922	          1.06983078	         -0.27579221	          1.06656158	          0.58173239	         -0.09065761	          0.98460758	          0.52600837	         -0.35903680	          0.97845083	          0.59169799	         -0.13083646	          0.92182833	          0.59455937	         -0.38930672	          1.01700318	          0.51578283	         -0.13853717	          0.89568961	          0.51104158	         -0.38029653	          0.99907410	          0.19456384	         -0.08306222	          0.79908228	          0.18677893	         -0.42545503	          1.01747417	          0.15881239	         -0.15532163	          0.78016251	          0.15265721	         -0.35114130	          1.13509846	          0.05736420	         -0.15262021	          0.88265598	          0.03642548	         -0.32288906	
          0.67499995	          0.95041054	          0.80335903	         -0.28165141	         -3.21940613	          2.12604666	          3.20971847	         28.87548828	         -6.20332956	         -2.72389126	        -20.66151047	         -2.08677244	          0.00000000	          0.00000000	         -7.29241514	          6.23712778	         -4.01831627	          4.47281313	          4.66804695	          0.00000000	          0.00000000	         -8.51668549	          0.82857490	         -5.39449787	          0.00000000	          0.00000000	          0.00000000	          1.19056665	          0.00000000	         -0.15783588	         19.48586569	        393.71810249	         19.94629251	          0.82839630	          0.00000000	         -0.31636575	          0.00000000	          0.00000000	          0.00000000	          0.00000000	         -1.59344238	          0.00000000	          0.89204776	          0.73961931	         -0.28469402	          0.88153392	          0.73267329	         -0.21686134	          0.87576050	          0.73924625	         -0.34688285	          1.03281128	          0.41965896	         -0.20171545	          0.81969953	          0.42723370	         -0.32557002	          1.06313133	          0.08000471	         -0.18708259	          0.78347635	          0.06945840	         -0.30695355	          0.95041054	          0.80335903	         -0.28165141	          0.95487368	          0.79827780	         -0.18113887	          0.94594741	          0.80844027	         -0.38216394	          0.79515970	          0.84363794	         -0.23678397	          0.79011810	          0.84756899	         -0.29124478	          1.03030980	          0.42110765	         -0.14679147	          0.81247693	          0.42484510	         -0.37953648	          1.05273211	          0.41963914	         -0.23976304	          0.81914151	          0.40916798	         -0.28184381	          1.04906130	          0.08024622	         -0.15232305	          0.77486700	          0.06845836	         -0.34292406	          1.07001662	          0.08473970	         -0.21046500	          0.78344268	          0.06913701	         -0.27657396	          0.82782215	          1.21355605	         -0.27879724	          0.93284428	          1.15135682	         -0.23512602	          0.93674368	          1.15489268	         -0.31168458	          0.92014670	          1.15233028	         -0.27558631	          0.94625294	          1.06939936	         -0.27567616	          1.07116914	          0.58147514	         -0.09132992	          0.98806649	          0.52552509	         -0.35943204	          0.98280764	          0.59142345	         -0.13108632	          0.92534316	          0.59411049	         -0.38911453	          1.02351642	          0.51591581	         -0.13897789	          0.89907205	          0.51071703	         -0.38018236	          1.01179540	          0.19300652	         -0.08264178	          0.80024606	          0.18668357	         -0.42519200	          1.03177154	          0.15762439	         -0.15492135	          0.78119969	          0.15263274	         -0.35078439	          1.15313900	          0.05956777	         -0.15145865	          0.88268965	          0.03643287	         -0.32294109	
